# Blender 5.0.0
# www.blender.org
mtllib Screen_01.mtl
o Screen_01
v 0.140000 7.324310 -8.393190
v 0.140000 2.018036 -8.393190
v 0.140000 7.324310 -1.449251
v 0.140000 2.018036 -1.449251
v -0.140000 7.212954 -8.265520
v -0.140000 2.261561 -8.265520
v -0.140000 7.212954 -1.576922
v -0.140000 2.261561 -1.576922
v -0.140000 2.018036 -8.393190
v -0.140000 2.018036 -1.449251
v -0.140000 7.324310 -1.449251
v -0.140000 7.324310 -8.393190
v -0.090110 2.261561 -8.265520
v -0.090110 2.261561 -1.576922
v -0.090110 7.212954 -1.576922
v -0.090110 7.212954 -8.265520
v -0.140000 2.018036 -7.941066
v -0.140000 2.018036 -7.643465
v -0.140000 2.018036 -2.198977
v -0.140000 2.018036 -1.901376
v 0.140000 7.324310 -7.941066
v 0.140000 7.324310 -7.643465
v 0.140000 7.324310 -2.198977
v 0.140000 7.324310 -1.901376
v -0.140000 7.324310 -1.901376
v -0.140000 7.324310 -2.198977
v -0.140000 7.324310 -7.643465
v -0.140000 7.324310 -7.941066
v 0.140000 2.018036 -1.901376
v 0.140000 2.018036 -2.198977
v 0.140000 2.018036 -7.643465
v 0.140000 2.018036 -7.941066
v -0.140000 2.261561 -7.830020
v -0.140000 2.261561 -7.543362
v -0.140000 2.261561 -2.299078
v -0.140000 2.261561 -2.012421
v -0.140000 7.212954 -2.012421
v -0.140000 7.212954 -2.299079
v -0.140000 7.212954 -7.543364
v -0.140000 7.212954 -7.830020
v -0.090110 2.261561 -7.830020
v -0.090110 2.261561 -7.543362
v -0.090110 2.261561 -2.299078
v -0.090110 2.261561 -2.012421
v -0.090110 7.212954 -2.012421
v -0.090110 7.212954 -2.299079
v -0.090110 7.212954 -7.543364
v -0.090110 7.212954 -7.830020
v -0.140000 -0.104114 -7.941066
v -0.140000 -0.104114 -7.643465
v -0.140000 -0.104114 -2.198977
v -0.140000 -0.104114 -1.901376
v 0.140000 -0.104114 -1.901376
v 0.140000 -0.104114 -2.198977
v 0.140000 -0.104114 -7.643465
v 0.140000 -0.104114 -7.941066
vn -0.0000 1.0000 -0.0000
vn -0.0000 -0.0000 1.0000
vn -0.0000 -1.0000 -0.0000
vn 1.0000 -0.0000 -0.0000
vn -0.0000 -0.0000 -1.0000
vn -1.0000 -0.0000 -0.0000
vt 0.264612 0.859478
vt 0.264612 0.915965
vt 0.220079 0.915899
vt 0.220079 0.859478
vt 0.220079 0.650534
vt 0.128200 0.859478
vt 0.129375 0.650534
vt 0.735055 0.934918
vt 0.798405 0.934918
vt 0.798405 0.995125
vt 0.735055 0.995125
vt 0.264612 0.621138
vt 0.264612 0.650534
vt 0.220079 0.621138
vt 0.876716 0.650534
vt 0.875541 0.859478
vt 0.798405 0.859478
vt 0.798405 0.650534
vt 0.735055 0.530699
vt 0.798405 0.530763
vt 0.798405 0.621138
vt 0.735055 0.621138
vt 0.046549 0.859478
vt 0.047646 0.650534
vt 0.953558 0.650534
vt 0.952461 0.859478
vt 0.264612 0.934918
vt 0.220079 0.934918
vt 0.282546 0.000328
vt 0.282449 0.437681
vt 0.250757 0.437675
vt 0.250854 0.000322
vt 0.001103 0.859478
vt 0.002200 0.650534
vt 0.999003 0.650534
vt 0.997907 0.859478
vt 0.264612 0.529845
vt 0.220079 0.529781
vt 0.220079 0.490866
vt 0.264612 0.490866
vt 0.735055 0.490866
vt 0.798405 0.490866
vt 0.707037 0.530657
vt 0.707037 0.490866
vt 0.298306 0.529887
vt 0.298306 0.490866
vt 0.749320 0.000422
vt 0.749223 0.437775
vt 0.717530 0.437769
vt 0.717627 0.000415
vt 0.696669 0.437764
vt 0.696767 0.000411
vt 0.303310 0.437686
vt 0.303407 0.000332
vt 0.735055 0.916852
vt 0.798405 0.916918
vt 0.707037 0.934918
vt 0.707037 0.916808
vt 0.298306 0.934918
vt 0.298306 0.916009
vt 0.298306 0.621138
vt 0.707037 0.621138
vt 0.735055 0.859478
vt 0.735055 0.650534
vt 0.707037 0.859478
vt 0.707037 0.650534
vt 0.298306 0.859478
vt 0.298306 0.650534
vt 0.114615 0.403522
vt 0.083576 0.403522
vt 0.083576 0.313814
vt 0.114615 0.313814
vt 0.909864 0.410443
vt 0.875926 0.410443
vt 0.875926 0.320735
vt 0.909864 0.320735
vt 0.264612 0.995125
vt 0.220079 0.995125
vt 0.298306 0.995125
vt 0.707037 0.995125
vt 0.083576 0.089506
vt 0.114615 0.089506
vt 0.875926 0.096428
vt 0.909864 0.096428
vt 0.794822 0.320735
vt 0.794822 0.096428
vt 0.000042 0.313814
vt 0.000042 0.089506
vt 0.083576 -0.000202
vt 0.114615 -0.000202
vt 0.875926 0.006720
vt 0.909864 0.006720
vt 0.999074 0.096428
vt 0.999074 0.320735
vt 0.202459 0.089506
vt 0.202460 0.313814
s 0
usemtl Screen_001
f 24/1/1 25/2/1 11/3/1 3/4/1
f 4/5/2 3/4/2 11/6/2 10/7/2
f 40/8/3 5/9/3 16/10/3 48/11/3
f 20/12/3 29/13/3 4/5/3 10/14/3
f 29/13/4 24/1/4 3/4/4 4/5/4
f 9/15/5 12/16/5 1/17/5 2/18/5
f 33/19/6 6/20/6 9/21/6 17/22/6
f 7/23/6 8/24/6 10/7/6 11/6/6
f 6/25/6 5/26/6 12/16/6 9/15/6
f 37/27/6 7/28/6 11/3/6 25/2/6
f 41/29/6 48/30/6 16/31/6 13/32/6
f 8/24/5 7/23/5 15/33/5 14/34/5
f 5/26/2 6/25/2 13/35/2 16/36/2
f 36/37/1 8/38/1 14/39/1 44/40/1
f 6/20/1 33/19/1 41/41/1 13/42/1
f 33/19/1 34/43/1 42/44/1 41/41/1
f 34/43/1 35/45/1 43/46/1 42/44/1
f 35/45/1 36/37/1 44/40/1 43/46/1
f 14/47/6 15/48/6 45/49/6 44/50/6
f 44/50/6 45/49/6 46/51/6 43/52/6
f 43/52/6 46/51/6 47/53/6 42/54/6
f 42/54/6 47/53/6 48/30/6 41/29/6
f 5/9/6 40/8/6 28/55/6 12/56/6
f 40/8/6 39/57/6 27/58/6 28/55/6
f 39/57/6 38/59/6 26/60/6 27/58/6
f 38/59/6 37/27/6 25/2/6 26/60/6
f 8/38/6 36/37/6 20/12/6 10/14/6
f 36/37/6 35/45/6 19/61/6 20/12/6
f 35/45/6 34/43/6 18/62/6 19/61/6
f 34/43/6 33/19/6 17/22/6 18/62/6
f 2/18/4 1/17/4 21/63/4 32/64/4
f 32/64/4 21/63/4 22/65/4 31/66/4
f 31/66/4 22/65/4 23/67/4 30/68/4
f 30/68/4 23/67/4 24/1/4 29/13/4
f 9/21/3 2/18/3 32/64/3 17/22/3
f 18/69/6 17/70/6 49/71/6 50/72/6
f 18/62/3 31/66/3 30/68/3 19/61/3
f 20/73/6 19/74/6 51/75/6 52/76/6
f 7/28/3 37/27/3 45/77/3 15/78/3
f 37/27/3 38/59/3 46/79/3 45/77/3
f 38/59/3 39/57/3 47/80/3 46/79/3
f 39/57/3 40/8/3 48/11/3 47/80/3
f 1/17/1 12/56/1 28/55/1 21/63/1
f 21/63/1 28/55/1 27/58/1 22/65/1
f 22/65/1 27/58/1 26/60/1 23/67/1
f 23/67/1 26/60/1 25/2/1 24/1/1
f 49/71/3 56/81/3 55/82/3 50/72/3
f 51/75/3 54/83/3 53/84/3 52/76/3
f 19/85/5 30/86/5 54/83/5 51/75/5
f 17/87/5 32/88/5 56/81/5 49/71/5
f 32/89/4 31/90/4 55/82/4 56/81/4
f 30/91/4 29/92/4 53/84/4 54/83/4
f 29/93/2 20/94/2 52/76/2 53/84/2
f 31/95/2 18/96/2 50/72/2 55/82/2
