# Blender 5.0.0
# www.blender.org
mtllib Screen_02.mtl
o Screen_02
v -0.151534 2.646345 7.448904
v -0.151534 7.131663 7.448904
v -0.151534 2.646345 1.186682
v -0.151534 7.131663 1.186682
v 0.151534 2.539634 7.136406
v 0.151534 6.890475 7.136406
v 0.151534 2.539634 1.499180
v 0.151534 6.890475 1.499180
v 0.151534 7.317809 0.945499
v 0.151534 2.112300 0.945499
v 0.151534 2.112300 7.690087
v 0.151534 7.317809 7.690087
v 0.493926 6.890475 1.499180
v 0.493926 2.539634 1.499180
v 0.493926 2.539634 7.136406
v 0.493926 6.890475 7.136406
v -0.151534 2.112300 0.945499
v -0.151534 2.112300 7.690087
v -0.151534 7.317809 7.690087
v -0.151534 7.317809 0.945499
v -0.050333 2.646345 1.186682
v -0.050333 2.646345 7.448904
v -0.050333 7.131663 7.448904
v -0.050333 7.131663 1.186682
vn -0.0000 -1.0000 -0.0000
vn -0.0000 -0.0000 -1.0000
vn -0.0000 -0.0000 1.0000
vn -0.0000 1.0000 -0.0000
vn 1.0000 -0.0000 -0.0000
vn -1.0000 -0.0000 -0.0000
vt 0.616060 0.008940
vt 0.616060 0.241060
vt 0.375000 0.250000
vt 0.625000 0.250000
vt 0.625000 0.500000
vt 0.375000 0.500000
vt 0.604477 0.729477
vt 0.395523 0.729477
vt 0.375000 0.750000
vt 0.625000 0.750000
vt 0.625000 1.000000
vt 0.375000 1.000000
vt 0.125000 0.500000
vt 0.125000 0.750000
vt 0.875000 0.500000
vt 0.875000 0.750000
vt 0.604477 0.520523
vt 0.395523 0.520523
vt 0.383940 0.008940
vt 0.383940 0.241060
vt 0.375000 0.000000
vt 0.625000 0.000000
s 0
usemtl Screen_02
f 2/1/1 4/2/1 24/2/1 23/1/1
f 17/3/2 20/4/2 9/5/2 10/6/2
f 6/7/3 5/8/3 15/8/3 16/7/3
f 11/9/3 12/10/3 19/11/3 18/12/3
f 17/13/1 10/6/1 11/9/1 18/14/1
f 9/5/4 20/15/4 19/16/4 12/10/4
f 8/17/5 7/18/5 10/6/5 9/5/5
f 7/18/5 5/8/5 11/9/5 10/6/5
f 6/7/5 8/17/5 9/5/5 12/10/5
f 5/8/5 6/7/5 12/10/5 11/9/5
f 14/18/5 13/17/5 16/7/5 15/8/5
f 5/8/1 7/18/1 14/18/1 15/8/1
f 8/17/4 6/7/4 16/7/4 13/17/4
f 7/18/2 8/17/2 13/17/2 14/18/2
f 1/19/6 3/20/6 17/3/6 18/21/6
f 2/1/6 1/19/6 18/21/6 19/22/6
f 4/2/6 2/1/6 19/22/6 20/4/6
f 3/20/6 4/2/6 20/4/6 17/3/6
f 22/19/6 23/1/6 24/2/6 21/20/6
f 3/20/4 1/19/4 22/19/4 21/20/4
f 4/2/3 3/20/3 21/20/3 24/2/3
f 1/19/2 2/1/2 23/1/2 22/19/2
